<?xml version="1.0" standalone="no"?>
<!DOCTYPE svg PUBLIC "-//W3C//DTD SVG 20010904//EN"
 "http://www.w3.org/TR/2001/REC-SVG-20010904/DTD/svg10.dtd">
<svg version="1.0" xmlns="http://www.w3.org/2000/svg"
 width="126.000000pt" height="126.000000pt" viewBox="0 0 126.000000 126.000000"
 preserveAspectRatio="xMidYMid meet">
<metadata>
Created by potrace 1.14, written by Peter Selinger 2001-2017
</metadata>
<g transform="translate(0.000000,126.000000) scale(0.100000,-0.100000)"
fill="#000000" stroke="none">
<path d="M489 1146 c-2 -2 -31 -6 -64 -10 -94 -10 -201 -43 -261 -81 -48 -31
-59 -44 -55 -67 2 -19 -32 -78 -69 -118 -40 -44 -41 -46 -35 -104 3 -32 9 -64
13 -70 30 -39 54 -130 53 -201 0 -42 -3 -80 -5 -84 -3 -4 -7 -48 -11 -97 -5
-83 -3 -93 18 -125 12 -19 43 -45 67 -59 39 -21 57 -25 135 -24 50 0 104 3
120 6 212 45 234 52 385 126 237 115 293 159 338 262 11 25 36 63 57 85 58 63
75 95 75 145 0 54 -18 85 -94 162 -31 32 -56 65 -56 73 0 36 -56 118 -108 159
-24 19 -41 20 -262 23 -131 1 -239 1 -241 -1z"/>
</g>
</svg>
